 <svg  version="1.0" xmlns="http://www.w3.org/2000/svg"  width="260.000000pt" height="247.000000pt" viewBox="0 0 260.000000 247.000000"  preserveAspectRatio="xMidYMid meet">  <g transform="translate(0.000000,247.000000) scale(0.100000,-0.100000)" fill="#43add0" stroke="none"> <path d="M0 2435 c0 -24 5 -35 15 -35 13 0 15 -128 15 -1088 0 -1034 1 -1089 18 -1121 10 -19 34 -43 53 -53 32 -17 90 -18 1202 -18 1138 0 1169 0 1206 20 76 38 71 -41 71 1174 0 717 3 1086 10 1086 6 0 10 16 10 35 l0 35 -1300 0 -1300 0 0 -35z m2508 -1121 l-3 -1086 -24 -19 c-23 -18 -56 -19 -1178 -19 l-1154 0 -24 25 -25 24 0 1081 0 1080 1205 0 1205 0 -2 -1086z"/> <path d="M292 2318 c-17 -17 -17 -2029 0 -2046 8 -8 55 -12 145 -12 121 0 133 2 143 19 5 11 10 67 10 125 0 137 1 136 -136 136 l-104 0 0 755 0 755 104 0 c137 0 136 -1 136 140 0 144 4 140 -159 140 -85 0 -131 -4 -139 -12z m228 -128 l0 -70 -85 0 -85 0 0 70 0 70 85 0 85 0 0 -70z m-2 -1792 l3 -68 -86 0 -85 0 0 70 0 71 83 -3 82 -3 3 -67z"/> <path d="M2037 2312 c-14 -15 -17 -40 -17 -125 0 -138 -1 -137 136 -137 l104 0 0 -755 0 -755 -101 0 c-142 0 -139 3 -139 -131 0 -61 5 -119 10 -130 10 -17 22 -19 143 -19 90 0 137 4 145 12 17 17 17 2029 0 2046 -8 8 -53 12 -138 12 -110 0 -129 -2 -143 -18z m223 -122 l0 -70 -85 0 -85 0 0 70 0 70 85 0 85 0 0 -70z m0 -1790 l0 -70 -85 0 -85 0 0 63 c0 35 3 67 7 70 3 4 42 7 85 7 l78 0 0 -70z"/> <path d="M1180 2284 c-14 -2 -59 -9 -100 -15 -94 -13 -159 -33 -234 -72 -105 -55 -96 26 -96 -909 0 -556 3 -825 11 -840 16 -36 98 -87 185 -114 126 -40 260 -57 404 -50 217 10 393 65 469 148 21 22 21 27 21 854 0 830 0 831 -21 858 -24 31 -110 76 -189 100 -110 34 -348 55 -450 40z m340 -89 c80 -17 194 -57 223 -79 16 -13 17 -61 15 -832 l-3 -819 -53 -28 c-100 -54 -171 -69 -358 -74 -111 -4 -196 -1 -240 6 -87 16 -209 56 -246 82 l-28 20 0 813 c0 926 -11 827 96 870 54 22 169 49 254 60 65 8 264 -3 340 -19z"/> <path d="M1052 1968 c-17 -17 -17 -449 0 -466 16 -16 460 -17 489 -2 18 10 19 23 19 230 0 185 -2 221 -16 234 -13 14 -50 16 -248 16 -167 0 -235 -3 -244 -12z m118 -128 l0 -70 -35 0 -35 0 0 70 0 70 35 0 35 0 0 -70z m190 0 l0 -70 -60 0 -60 0 0 70 0 70 60 0 60 0 0 -70z m130 0 l0 -70 -35 0 -35 0 0 70 0 70 35 0 35 0 0 -70z m-320 -210 l0 -70 -35 0 -35 0 0 70 0 70 35 0 35 0 0 -70z m190 0 l0 -70 -60 0 -60 0 0 70 0 70 60 0 60 0 0 -70z m130 0 l0 -70 -35 0 -35 0 0 70 0 70 35 0 35 0 0 -70z"/> <path d="M1156 1388 c-15 -13 -29 -38 -32 -55 -6 -28 -1 -38 30 -69 32 -32 41 -36 73 -31 19 4 44 14 54 23 17 15 20 15 45 -5 45 -36 113 -21 140 30 21 42 17 67 -15 100 -35 35 -86 39 -123 10 -23 -19 -24 -19 -48 0 -35 26 -93 25 -124 -3z m84 -43 c6 -8 10 -22 8 -32 -4 -24 -47 -24 -62 0 -9 15 -7 21 8 33 25 18 31 18 46 -1z m180 -18 c0 -24 -18 -39 -41 -35 -29 4 -38 37 -14 54 20 15 55 2 55 -19z"/> <path d="M1051 1051 c-18 -18 -19 -34 -17 -229 2 -155 6 -215 16 -226 19 -24 471 -24 494 0 24 23 24 435 0 458 -13 14 -50 16 -245 16 -212 0 -230 -1 -248 -19z m119 -123 l0 -73 -32 1 -33 1 -3 71 -3 72 36 0 35 0 0 -72z m190 -3 l0 -75 -37 0 c-79 0 -83 4 -83 81 l0 69 60 0 60 0 0 -75z m130 0 l0 -75 -35 0 -35 0 0 75 0 75 35 0 35 0 0 -75z m-320 -205 l0 -70 -35 0 -35 0 0 70 0 70 35 0 35 0 0 -70z m190 0 l0 -70 -62 0 -63 0 0 70 0 70 63 0 62 0 0 -70z m130 0 l0 -70 -35 0 -35 0 0 70 0 70 35 0 35 0 0 -70z"/> </g> </svg> 